<?xml version="1.0" encoding="UTF-8" standalone="no"?>
<!DOCTYPE svg PUBLIC "-//W3C//DTD SVG 1.1//EN"
 "http://www.w3.org/Graphics/SVG/1.1/DTD/svg11.dtd">
<!-- Generated by graphviz version 2.40.1 (20161225.0304)
 -->
<!-- Title: G Pages: 1 -->
<svg width="384pt" height="294pt"
 viewBox="0.00 0.00 384.00 294.00" xmlns="http://www.w3.org/2000/svg" xmlns:xlink="http://www.w3.org/1999/xlink">
<g id="graph0" class="graph" transform="scale(1 1) rotate(0) translate(4 290)">
<title>G</title>
<polygon fill="#ffffff" stroke="transparent" points="-4,4 -4,-290 380,-290 380,4 -4,4"/>
<g id="clust1" class="cluster">
<title>cluster_Global</title>
<path fill="none" stroke="#c0c0c0" d="M20,-8C20,-8 356,-8 356,-8 362,-8 368,-14 368,-20 368,-20 368,-266 368,-266 368,-272 362,-278 356,-278 356,-278 20,-278 20,-278 14,-278 8,-272 8,-266 8,-266 8,-20 8,-20 8,-14 14,-8 20,-8"/>
<text text-anchor="middle" x="188" y="-265.2" font-family="Times,serif" font-size="11.00" fill="#c0c0c0">Global</text>
</g>
<g id="clust2" class="cluster">
<title>cluster_\BOC</title>
<path fill="none" stroke="#c0c0c0" d="M28,-16C28,-16 348,-16 348,-16 354,-16 360,-22 360,-28 360,-28 360,-238 360,-238 360,-244 354,-250 348,-250 348,-250 28,-250 28,-250 22,-250 16,-244 16,-238 16,-238 16,-28 16,-28 16,-22 22,-16 28,-16"/>
<text text-anchor="middle" x="188" y="-237.2" font-family="Times,serif" font-size="11.00" fill="#c0c0c0">BOC</text>
</g>
<!-- \\BOC\\WatchGuardService -->
<g id="node1" class="node">
<title>\\BOC\\WatchGuardService</title>
<polygon fill="none" stroke="#000000" points="352,-222 221,-222 221,-186 352,-186 352,-222"/>
<text text-anchor="middle" x="286.5" y="-201.2" font-family="Courier,monospace" font-size="11.00" fill="#000000">WatchGuardService</text>
</g>
<!-- \\BOC\\WatchGuardObject -->
<g id="node2" class="node">
<title>\\BOC\\WatchGuardObject</title>
<polygon fill="none" stroke="#000000" points="149,-114 24,-114 24,-78 149,-78 149,-114"/>
<text text-anchor="middle" x="86.5" y="-93.2" font-family="Courier,monospace" font-size="11.00" fill="#000000">WatchGuardObject</text>
</g>
<!-- \\BOC\\WatchGuardService&#45;&gt;\\BOC\\WatchGuardObject -->
<g id="edge1" class="edge">
<title>\\BOC\\WatchGuardService&#45;&gt;\\BOC\\WatchGuardObject</title>
<path fill="none" stroke="#000000" d="M240.2959,-185.9834C233.7465,-183.1327 227.1518,-180.0981 221,-177 186.4411,-159.5961 148.8529,-136.5878 122.221,-119.5417"/>
<polygon fill="none" stroke="#000000" points="123.9314,-116.4802 113.6295,-114.0061 120.14,-122.3645 123.9314,-116.4802"/>
</g>
<!-- \\BOC\\WatchGuardXMLFile -->
<g id="node3" class="node">
<title>\\BOC\\WatchGuardXMLFile</title>
<polygon fill="none" stroke="#000000" points="352,-168 221,-168 221,-132 352,-132 352,-168"/>
<text text-anchor="middle" x="286.5" y="-147.2" font-family="Courier,monospace" font-size="11.00" fill="#000000">WatchGuardXMLFile</text>
</g>
<!-- \\BOC\\WatchGuardAlias -->
<g id="node4" class="node">
<title>\\BOC\\WatchGuardAlias</title>
<polygon fill="none" stroke="#000000" points="345.5,-114 227.5,-114 227.5,-78 345.5,-78 345.5,-114"/>
<text text-anchor="middle" x="286.5" y="-93.2" font-family="Courier,monospace" font-size="11.00" fill="#000000">WatchGuardAlias</text>
</g>
<!-- \\BOC\\WatchGuardAlias&#45;&gt;\\BOC\\WatchGuardObject -->
<g id="edge2" class="edge">
<title>\\BOC\\WatchGuardAlias&#45;&gt;\\BOC\\WatchGuardObject</title>
<path fill="none" stroke="#000000" d="M227.3052,-96C205.9292,-96 181.5507,-96 159.1544,-96"/>
<polygon fill="none" stroke="#000000" points="159.0217,-92.5001 149.0217,-96 159.0216,-99.5001 159.0217,-92.5001"/>
</g>
<!-- \\BOC\\WatchGuardPolicy -->
<g id="node5" class="node">
<title>\\BOC\\WatchGuardPolicy</title>
<polygon fill="none" stroke="#000000" points="349,-60 224,-60 224,-24 349,-24 349,-60"/>
<text text-anchor="middle" x="286.5" y="-39.2" font-family="Courier,monospace" font-size="11.00" fill="#000000">WatchGuardPolicy</text>
</g>
<!-- \\BOC\\WatchGuardPolicy&#45;&gt;\\BOC\\WatchGuardObject -->
<g id="edge3" class="edge">
<title>\\BOC\\WatchGuardPolicy&#45;&gt;\\BOC\\WatchGuardObject</title>
<path fill="none" stroke="#000000" d="M223.7675,-58.9378C203.1973,-64.4917 180.1719,-70.7086 158.9437,-76.4402"/>
<polygon fill="none" stroke="#000000" points="157.7519,-73.1366 149.0099,-79.1223 159.5766,-79.8946 157.7519,-73.1366"/>
</g>
</g>
</svg>
