<?xml version="1.0" encoding="UTF-8" standalone="no"?>
<!DOCTYPE svg PUBLIC "-//W3C//DTD SVG 1.1//EN"
 "http://www.w3.org/Graphics/SVG/1.1/DTD/svg11.dtd">
<!-- Generated by graphviz version 2.40.1 (20161225.0304)
 -->
<!-- Title: G Pages: 1 -->
<svg width="384pt" height="348pt"
 viewBox="0.00 0.00 384.00 348.00" xmlns="http://www.w3.org/2000/svg" xmlns:xlink="http://www.w3.org/1999/xlink">
<g id="graph0" class="graph" transform="scale(1 1) rotate(0) translate(4 344)">
<title>G</title>
<polygon fill="#ffffff" stroke="transparent" points="-4,4 -4,-344 380,-344 380,4 -4,4"/>
<g id="clust1" class="cluster">
<title>cluster_Global</title>
<path fill="none" stroke="#c0c0c0" d="M20,-8C20,-8 356,-8 356,-8 362,-8 368,-14 368,-20 368,-20 368,-320 368,-320 368,-326 362,-332 356,-332 356,-332 20,-332 20,-332 14,-332 8,-326 8,-320 8,-320 8,-20 8,-20 8,-14 14,-8 20,-8"/>
<text text-anchor="middle" x="188" y="-319.2" font-family="Times,serif" font-size="11.00" fill="#c0c0c0">Global</text>
</g>
<g id="clust2" class="cluster">
<title>cluster_\BOC</title>
<path fill="none" stroke="#c0c0c0" d="M28,-16C28,-16 348,-16 348,-16 354,-16 360,-22 360,-28 360,-28 360,-292 360,-292 360,-298 354,-304 348,-304 348,-304 28,-304 28,-304 22,-304 16,-298 16,-292 16,-292 16,-28 16,-28 16,-22 22,-16 28,-16"/>
<text text-anchor="middle" x="188" y="-291.2" font-family="Times,serif" font-size="11.00" fill="#c0c0c0">BOC</text>
</g>
<!-- \\BOC\\WatchGuardXMLFile -->
<g id="node1" class="node">
<title>\\BOC\\WatchGuardXMLFile</title>
<polygon fill="none" stroke="#000000" points="352,-276 221,-276 221,-240 352,-240 352,-276"/>
<text text-anchor="middle" x="286.5" y="-255.2" font-family="Courier,monospace" font-size="11.00" fill="#000000">WatchGuardXMLFile</text>
</g>
<!-- \\BOC\\WatchGuardPolicy -->
<g id="node2" class="node">
<title>\\BOC\\WatchGuardPolicy</title>
<polygon fill="none" stroke="#000000" points="349,-222 224,-222 224,-186 349,-186 349,-222"/>
<text text-anchor="middle" x="286.5" y="-201.2" font-family="Courier,monospace" font-size="11.00" fill="#000000">WatchGuardPolicy</text>
</g>
<!-- \\BOC\\WatchGuardObject -->
<g id="node6" class="node">
<title>\\BOC\\WatchGuardObject</title>
<polygon fill="none" stroke="#000000" points="149,-141 24,-141 24,-105 149,-105 149,-141"/>
<text text-anchor="middle" x="86.5" y="-120.2" font-family="Courier,monospace" font-size="11.00" fill="#000000">WatchGuardObject</text>
</g>
<!-- \\BOC\\WatchGuardPolicy&#45;&gt;\\BOC\\WatchGuardObject -->
<g id="edge1" class="edge">
<title>\\BOC\\WatchGuardPolicy&#45;&gt;\\BOC\\WatchGuardObject</title>
<path fill="none" stroke="#000000" d="M241.6161,-185.822C211.7657,-173.7326 172.3866,-157.7841 140.7758,-144.9817"/>
<polygon fill="none" stroke="#000000" points="141.8167,-141.6271 131.2341,-141.1173 139.1889,-148.1152 141.8167,-141.6271"/>
</g>
<!-- \\BOC\\WatchGuardService -->
<g id="node3" class="node">
<title>\\BOC\\WatchGuardService</title>
<polygon fill="none" stroke="#000000" points="352,-168 221,-168 221,-132 352,-132 352,-168"/>
<text text-anchor="middle" x="286.5" y="-147.2" font-family="Courier,monospace" font-size="11.00" fill="#000000">WatchGuardService</text>
</g>
<!-- \\BOC\\WatchGuardService&#45;&gt;\\BOC\\WatchGuardObject -->
<g id="edge2" class="edge">
<title>\\BOC\\WatchGuardService&#45;&gt;\\BOC\\WatchGuardObject</title>
<path fill="none" stroke="#000000" d="M220.7355,-141.1218C201.0613,-138.4658 179.3765,-135.5383 159.2793,-132.8252"/>
<polygon fill="none" stroke="#000000" points="159.6248,-129.3402 149.2464,-131.4708 158.6882,-136.2773 159.6248,-129.3402"/>
</g>
<!-- \\BOC\\WatchGuardAlias -->
<g id="node4" class="node">
<title>\\BOC\\WatchGuardAlias</title>
<polygon fill="none" stroke="#000000" points="345.5,-114 227.5,-114 227.5,-78 345.5,-78 345.5,-114"/>
<text text-anchor="middle" x="286.5" y="-93.2" font-family="Courier,monospace" font-size="11.00" fill="#000000">WatchGuardAlias</text>
</g>
<!-- \\BOC\\WatchGuardAlias&#45;&gt;\\BOC\\WatchGuardObject -->
<g id="edge3" class="edge">
<title>\\BOC\\WatchGuardAlias&#45;&gt;\\BOC\\WatchGuardObject</title>
<path fill="none" stroke="#000000" d="M227.3052,-103.9913C205.9292,-106.8771 181.5507,-110.1682 159.1544,-113.1917"/>
<polygon fill="none" stroke="#000000" points="158.4635,-109.7531 149.0217,-114.5596 159.4001,-116.6902 158.4635,-109.7531"/>
</g>
<!-- \\BOC\\WatchGuardTag -->
<g id="node5" class="node">
<title>\\BOC\\WatchGuardTag</title>
<polygon fill="none" stroke="#000000" points="338.5,-60 234.5,-60 234.5,-24 338.5,-24 338.5,-60"/>
<text text-anchor="middle" x="286.5" y="-39.2" font-family="Courier,monospace" font-size="11.00" fill="#000000">WatchGuardTag</text>
</g>
<!-- \\BOC\\WatchGuardTag&#45;&gt;\\BOC\\WatchGuardObject -->
<g id="edge4" class="edge">
<title>\\BOC\\WatchGuardTag&#45;&gt;\\BOC\\WatchGuardObject</title>
<path fill="none" stroke="#000000" d="M241.6161,-60.178C211.7657,-72.2674 172.3866,-88.2159 140.7758,-101.0183"/>
<polygon fill="none" stroke="#000000" points="139.1889,-97.8848 131.2341,-104.8827 141.8167,-104.3729 139.1889,-97.8848"/>
</g>
</g>
</svg>
